<mxfile host="app.diagrams.net" agent="Mozilla/5.0 (Windows NT 10.0; Win64; x64) AppleWebKit/537.36 (KHTML, like Gecko) Chrome/131.0.0.0 Safari/537.36 OPR/116.0.0.0" version="26.0.11">
  <diagram name="Page-1" id="t7bRSFVgK8PCdRSUCOVL">
    <mxGraphModel dx="1157" dy="657" grid="1" gridSize="10" guides="1" tooltips="1" connect="1" arrows="1" fold="1" page="1" pageScale="1" pageWidth="850" pageHeight="1100" math="0" shadow="0">
      <root>
        <mxCell id="0" />
        <mxCell id="1" parent="0" />
        <mxCell id="NqXi6xo34VccyUWVhqhI-3" value="BoardState" style="shape=associativeEntity;whiteSpace=wrap;html=1;align=center;" parent="1" vertex="1">
          <mxGeometry x="990" y="485" width="80" height="40" as="geometry" />
        </mxCell>
        <mxCell id="NqXi6xo34VccyUWVhqhI-4" value="Card" style="whiteSpace=wrap;html=1;align=center;" parent="1" vertex="1">
          <mxGeometry x="590" y="485" width="120" height="40" as="geometry" />
        </mxCell>
        <mxCell id="NqXi6xo34VccyUWVhqhI-5" value="Deck" style="whiteSpace=wrap;html=1;align=center;" parent="1" vertex="1">
          <mxGeometry x="590" y="855" width="120" height="40" as="geometry" />
        </mxCell>
        <mxCell id="NqXi6xo34VccyUWVhqhI-6" value="Pile" style="whiteSpace=wrap;html=1;align=center;" parent="1" vertex="1">
          <mxGeometry x="1210" y="485" width="120" height="40" as="geometry" />
        </mxCell>
        <mxCell id="NqXi6xo34VccyUWVhqhI-7" value="Rarity" style="whiteSpace=wrap;html=1;align=center;" parent="1" vertex="1">
          <mxGeometry x="300" y="485" width="120" height="40" as="geometry" />
        </mxCell>
        <mxCell id="NqXi6xo34VccyUWVhqhI-9" value="Decklist" style="shape=associativeEntity;whiteSpace=wrap;html=1;align=center;" parent="1" vertex="1">
          <mxGeometry x="610" y="695" width="80" height="40" as="geometry" />
        </mxCell>
        <mxCell id="NqXi6xo34VccyUWVhqhI-11" value="Match" style="whiteSpace=wrap;html=1;align=center;" parent="1" vertex="1">
          <mxGeometry x="970" y="655" width="120" height="40" as="geometry" />
        </mxCell>
        <mxCell id="NqXi6xo34VccyUWVhqhI-32" value="" style="fontSize=12;html=1;endArrow=ERzeroToMany;endFill=1;rounded=0;entryX=0.5;entryY=0;entryDx=0;entryDy=0;exitX=0.5;exitY=1;exitDx=0;exitDy=0;" parent="1" source="77BDy7SxmX_6jDcQKQBA-6" target="NqXi6xo34VccyUWVhqhI-9" edge="1">
          <mxGeometry width="100" height="100" relative="1" as="geometry">
            <mxPoint x="650" y="655" as="sourcePoint" />
            <mxPoint x="620" y="630" as="targetPoint" />
          </mxGeometry>
        </mxCell>
        <mxCell id="NqXi6xo34VccyUWVhqhI-34" value="Has" style="shape=rhombus;perimeter=rhombusPerimeter;whiteSpace=wrap;html=1;align=center;" parent="1" vertex="1">
          <mxGeometry x="620" y="775" width="60" height="40" as="geometry" />
        </mxCell>
        <mxCell id="NqXi6xo34VccyUWVhqhI-36" value="" style="edgeStyle=orthogonalEdgeStyle;fontSize=12;html=1;endArrow=ERzeroToMany;endFill=1;rounded=0;entryX=0.5;entryY=1;entryDx=0;entryDy=0;exitX=0.5;exitY=0;exitDx=0;exitDy=0;" parent="1" source="NqXi6xo34VccyUWVhqhI-34" target="NqXi6xo34VccyUWVhqhI-9" edge="1">
          <mxGeometry width="100" height="100" relative="1" as="geometry">
            <mxPoint x="640" y="605" as="sourcePoint" />
            <mxPoint x="740" y="750" as="targetPoint" />
          </mxGeometry>
        </mxCell>
        <mxCell id="NqXi6xo34VccyUWVhqhI-37" value="Contains" style="shape=rhombus;perimeter=rhombusPerimeter;whiteSpace=wrap;html=1;align=center;" parent="1" vertex="1">
          <mxGeometry x="1000" y="575" width="60" height="40" as="geometry" />
        </mxCell>
        <mxCell id="NqXi6xo34VccyUWVhqhI-38" value="Part of" style="shape=rhombus;perimeter=rhombusPerimeter;whiteSpace=wrap;html=1;align=center;" parent="1" vertex="1">
          <mxGeometry x="1110" y="485" width="60" height="40" as="geometry" />
        </mxCell>
        <mxCell id="NqXi6xo34VccyUWVhqhI-40" value="" style="fontSize=12;html=1;endArrow=ERzeroToMany;endFill=1;rounded=0;exitX=0;exitY=0.5;exitDx=0;exitDy=0;entryX=1;entryY=0.5;entryDx=0;entryDy=0;" parent="1" source="NqXi6xo34VccyUWVhqhI-38" target="NqXi6xo34VccyUWVhqhI-3" edge="1">
          <mxGeometry width="100" height="100" relative="1" as="geometry">
            <mxPoint x="1010" y="375" as="sourcePoint" />
            <mxPoint x="970" y="375" as="targetPoint" />
          </mxGeometry>
        </mxCell>
        <mxCell id="NqXi6xo34VccyUWVhqhI-41" value="" style="fontSize=12;html=1;endArrow=ERmandOne;rounded=0;entryX=0;entryY=0.5;entryDx=0;entryDy=0;exitX=1;exitY=0.5;exitDx=0;exitDy=0;" parent="1" source="NqXi6xo34VccyUWVhqhI-38" target="NqXi6xo34VccyUWVhqhI-6" edge="1">
          <mxGeometry width="100" height="100" relative="1" as="geometry">
            <mxPoint x="950" y="445" as="sourcePoint" />
            <mxPoint x="1050" y="345" as="targetPoint" />
          </mxGeometry>
        </mxCell>
        <mxCell id="NqXi6xo34VccyUWVhqhI-44" value="" style="fontSize=12;html=1;endArrow=ERzeroToMany;endFill=1;rounded=0;entryX=0.5;entryY=1;entryDx=0;entryDy=0;exitX=0.5;exitY=0;exitDx=0;exitDy=0;endSize=6;jumpSize=5;strokeColor=default;arcSize=10;" parent="1" source="NqXi6xo34VccyUWVhqhI-37" target="NqXi6xo34VccyUWVhqhI-3" edge="1">
          <mxGeometry width="100" height="100" relative="1" as="geometry">
            <mxPoint x="790" y="845" as="sourcePoint" />
            <mxPoint x="890" y="745" as="targetPoint" />
          </mxGeometry>
        </mxCell>
        <mxCell id="NqXi6xo34VccyUWVhqhI-46" value="" style="fontSize=12;html=1;endArrow=ERmandOne;rounded=0;entryX=0.5;entryY=0;entryDx=0;entryDy=0;exitX=0.5;exitY=1;exitDx=0;exitDy=0;" parent="1" source="NqXi6xo34VccyUWVhqhI-37" target="NqXi6xo34VccyUWVhqhI-11" edge="1">
          <mxGeometry width="100" height="100" relative="1" as="geometry">
            <mxPoint x="720" y="875" as="sourcePoint" />
            <mxPoint x="820" y="775" as="targetPoint" />
          </mxGeometry>
        </mxCell>
        <mxCell id="NqXi6xo34VccyUWVhqhI-67" value="" style="edgeStyle=orthogonalEdgeStyle;fontSize=12;html=1;endArrow=ERmandOne;rounded=0;entryX=0.5;entryY=0;entryDx=0;entryDy=0;exitX=0.5;exitY=1;exitDx=0;exitDy=0;" parent="1" source="NqXi6xo34VccyUWVhqhI-34" target="NqXi6xo34VccyUWVhqhI-5" edge="1">
          <mxGeometry width="100" height="100" relative="1" as="geometry">
            <mxPoint x="380" y="1045" as="sourcePoint" />
            <mxPoint x="480" y="945" as="targetPoint" />
          </mxGeometry>
        </mxCell>
        <mxCell id="NqXi6xo34VccyUWVhqhI-68" value="Part of" style="shape=rhombus;perimeter=rhombusPerimeter;whiteSpace=wrap;html=1;align=center;" parent="1" vertex="1">
          <mxGeometry x="470" y="485" width="60" height="40" as="geometry" />
        </mxCell>
        <mxCell id="NqXi6xo34VccyUWVhqhI-69" value="Is a" style="shape=rhombus;perimeter=rhombusPerimeter;whiteSpace=wrap;html=1;align=center;" parent="1" vertex="1">
          <mxGeometry x="830" y="485" width="60" height="40" as="geometry" />
        </mxCell>
        <mxCell id="NqXi6xo34VccyUWVhqhI-71" value="" style="edgeStyle=entityRelationEdgeStyle;fontSize=12;html=1;endArrow=ERzeroToMany;endFill=1;rounded=0;entryX=0;entryY=0.5;entryDx=0;entryDy=0;exitX=1;exitY=0.5;exitDx=0;exitDy=0;" parent="1" source="NqXi6xo34VccyUWVhqhI-69" target="NqXi6xo34VccyUWVhqhI-3" edge="1">
          <mxGeometry width="100" height="100" relative="1" as="geometry">
            <mxPoint x="910" y="505" as="sourcePoint" />
            <mxPoint x="880" y="505" as="targetPoint" />
          </mxGeometry>
        </mxCell>
        <mxCell id="NqXi6xo34VccyUWVhqhI-72" value="" style="edgeStyle=entityRelationEdgeStyle;fontSize=12;html=1;endArrow=ERmandOne;rounded=0;entryX=1;entryY=0.5;entryDx=0;entryDy=0;exitX=0;exitY=0.5;exitDx=0;exitDy=0;" parent="1" source="NqXi6xo34VccyUWVhqhI-69" target="NqXi6xo34VccyUWVhqhI-4" edge="1">
          <mxGeometry width="100" height="100" relative="1" as="geometry">
            <mxPoint x="890" y="600" as="sourcePoint" />
            <mxPoint x="990" y="500" as="targetPoint" />
          </mxGeometry>
        </mxCell>
        <mxCell id="NqXi6xo34VccyUWVhqhI-78" value="Spell" style="whiteSpace=wrap;html=1;align=center;" parent="1" vertex="1">
          <mxGeometry x="682.5" y="325" width="120" height="40" as="geometry" />
        </mxCell>
        <mxCell id="NqXi6xo34VccyUWVhqhI-79" value="Creature" style="whiteSpace=wrap;html=1;align=center;" parent="1" vertex="1">
          <mxGeometry x="492.5" y="325" width="120" height="40" as="geometry" />
        </mxCell>
        <mxCell id="NqXi6xo34VccyUWVhqhI-81" value="d" style="ellipse;whiteSpace=wrap;html=1;align=center;" parent="1" vertex="1">
          <mxGeometry x="640" y="420" width="20" height="20" as="geometry" />
        </mxCell>
        <mxCell id="NqXi6xo34VccyUWVhqhI-83" value="" style="shape=link;html=1;rounded=0;exitX=0.5;exitY=1;exitDx=0;exitDy=0;entryX=0.5;entryY=0;entryDx=0;entryDy=0;" parent="1" source="NqXi6xo34VccyUWVhqhI-81" target="NqXi6xo34VccyUWVhqhI-4" edge="1">
          <mxGeometry relative="1" as="geometry">
            <mxPoint x="630" y="345" as="sourcePoint" />
            <mxPoint x="485" y="400" as="targetPoint" />
          </mxGeometry>
        </mxCell>
        <mxCell id="NqXi6xo34VccyUWVhqhI-86" value="" style="endArrow=none;html=1;rounded=0;exitX=0.5;exitY=1;exitDx=0;exitDy=0;entryX=0;entryY=0;entryDx=0;entryDy=0;" parent="1" source="NqXi6xo34VccyUWVhqhI-79" target="NqXi6xo34VccyUWVhqhI-81" edge="1">
          <mxGeometry relative="1" as="geometry">
            <mxPoint x="622.5" y="645" as="sourcePoint" />
            <mxPoint x="622.5" y="595" as="targetPoint" />
          </mxGeometry>
        </mxCell>
        <mxCell id="NqXi6xo34VccyUWVhqhI-87" value="" style="endArrow=none;html=1;rounded=0;entryX=0.5;entryY=1;entryDx=0;entryDy=0;exitX=1;exitY=0;exitDx=0;exitDy=0;" parent="1" source="NqXi6xo34VccyUWVhqhI-81" target="NqXi6xo34VccyUWVhqhI-78" edge="1">
          <mxGeometry relative="1" as="geometry">
            <mxPoint x="602.5" y="655" as="sourcePoint" />
            <mxPoint x="762.5" y="655" as="targetPoint" />
          </mxGeometry>
        </mxCell>
        <mxCell id="NqXi6xo34VccyUWVhqhI-90" value="" style="endArrow=none;html=1;rounded=0;edgeStyle=orthogonalEdgeStyle;curved=1;" parent="1" edge="1">
          <mxGeometry width="50" height="50" relative="1" as="geometry">
            <mxPoint x="592.5" y="420" as="sourcePoint" />
            <mxPoint x="632.5" y="380" as="targetPoint" />
            <Array as="points">
              <mxPoint x="592.5" y="380" />
            </Array>
          </mxGeometry>
        </mxCell>
        <mxCell id="NqXi6xo34VccyUWVhqhI-91" value="" style="endArrow=none;html=1;rounded=0;edgeStyle=orthogonalEdgeStyle;curved=1;" parent="1" edge="1">
          <mxGeometry width="50" height="50" relative="1" as="geometry">
            <mxPoint x="702.5" y="420" as="sourcePoint" />
            <mxPoint x="662.5" y="380" as="targetPoint" />
            <Array as="points">
              <mxPoint x="702.5" y="380" />
            </Array>
          </mxGeometry>
        </mxCell>
        <mxCell id="_TsKwwzWjokHUei5vShT-3" value="Attack" style="ellipse;whiteSpace=wrap;html=1;align=center;" parent="1" vertex="1">
          <mxGeometry x="502.5" y="260" width="100" height="40" as="geometry" />
        </mxCell>
        <mxCell id="_TsKwwzWjokHUei5vShT-4" value="Health" style="ellipse;whiteSpace=wrap;html=1;align=center;" parent="1" vertex="1">
          <mxGeometry x="360" y="325" width="100" height="40" as="geometry" />
        </mxCell>
        <mxCell id="_TsKwwzWjokHUei5vShT-5" value="" style="endArrow=none;html=1;rounded=0;exitX=1;exitY=0.5;exitDx=0;exitDy=0;entryX=0;entryY=0.5;entryDx=0;entryDy=0;" parent="1" source="_TsKwwzWjokHUei5vShT-4" target="NqXi6xo34VccyUWVhqhI-79" edge="1">
          <mxGeometry relative="1" as="geometry">
            <mxPoint x="282.5" y="445" as="sourcePoint" />
            <mxPoint x="362.5" y="345" as="targetPoint" />
          </mxGeometry>
        </mxCell>
        <mxCell id="_TsKwwzWjokHUei5vShT-6" value="" style="endArrow=none;html=1;rounded=0;exitX=0.5;exitY=1;exitDx=0;exitDy=0;entryX=0.5;entryY=0;entryDx=0;entryDy=0;" parent="1" source="_TsKwwzWjokHUei5vShT-3" target="NqXi6xo34VccyUWVhqhI-79" edge="1">
          <mxGeometry relative="1" as="geometry">
            <mxPoint x="362.5" y="300" as="sourcePoint" />
            <mxPoint x="362.5" y="345" as="targetPoint" />
          </mxGeometry>
        </mxCell>
        <mxCell id="_TsKwwzWjokHUei5vShT-9" value="" style="endArrow=none;html=1;rounded=0;exitX=0.5;exitY=1;exitDx=0;exitDy=0;entryX=0.5;entryY=0;entryDx=0;entryDy=0;" parent="1" source="NqXi6xo34VccyUWVhqhI-7" target="_TsKwwzWjokHUei5vShT-14" edge="1">
          <mxGeometry relative="1" as="geometry">
            <mxPoint x="335" y="627.5" as="sourcePoint" />
            <mxPoint x="210" y="502.5" as="targetPoint" />
          </mxGeometry>
        </mxCell>
        <mxCell id="_TsKwwzWjokHUei5vShT-10" value="RarityType" style="ellipse;whiteSpace=wrap;html=1;align=center;" parent="1" vertex="1">
          <mxGeometry x="310" y="415" width="100" height="40" as="geometry" />
        </mxCell>
        <mxCell id="_TsKwwzWjokHUei5vShT-11" value="" style="endArrow=none;html=1;rounded=0;exitX=0.5;exitY=1;exitDx=0;exitDy=0;entryX=0.5;entryY=0;entryDx=0;entryDy=0;" parent="1" source="_TsKwwzWjokHUei5vShT-10" target="NqXi6xo34VccyUWVhqhI-7" edge="1">
          <mxGeometry relative="1" as="geometry">
            <mxPoint x="360" y="395" as="sourcePoint" />
            <mxPoint x="360" y="485" as="targetPoint" />
          </mxGeometry>
        </mxCell>
        <mxCell id="_TsKwwzWjokHUei5vShT-12" value="&lt;u&gt;RarityID&lt;/u&gt;" style="ellipse;whiteSpace=wrap;html=1;align=center;" parent="1" vertex="1">
          <mxGeometry x="170" y="482.5" width="100" height="45" as="geometry" />
        </mxCell>
        <mxCell id="_TsKwwzWjokHUei5vShT-13" value="" style="endArrow=none;html=1;rounded=0;entryX=0;entryY=0.5;entryDx=0;entryDy=0;exitX=1;exitY=0.5;exitDx=0;exitDy=0;" parent="1" source="_TsKwwzWjokHUei5vShT-12" target="NqXi6xo34VccyUWVhqhI-7" edge="1">
          <mxGeometry relative="1" as="geometry">
            <mxPoint x="320" y="630" as="sourcePoint" />
            <mxPoint x="360" y="525" as="targetPoint" />
          </mxGeometry>
        </mxCell>
        <mxCell id="_TsKwwzWjokHUei5vShT-14" value="RarityChance" style="ellipse;whiteSpace=wrap;html=1;align=center;" parent="1" vertex="1">
          <mxGeometry x="310" y="555" width="100" height="40" as="geometry" />
        </mxCell>
        <mxCell id="_TsKwwzWjokHUei5vShT-16" value="Cost" style="ellipse;whiteSpace=wrap;html=1;align=center;" parent="1" vertex="1">
          <mxGeometry x="720" y="595" width="100" height="40" as="geometry" />
        </mxCell>
        <mxCell id="_TsKwwzWjokHUei5vShT-17" value="Name" style="ellipse;whiteSpace=wrap;html=1;align=center;" parent="1" vertex="1">
          <mxGeometry x="770" y="535" width="100" height="40" as="geometry" />
        </mxCell>
        <mxCell id="_TsKwwzWjokHUei5vShT-18" value="" style="endArrow=none;html=1;rounded=0;entryX=1;entryY=1;entryDx=0;entryDy=0;exitX=0;exitY=0;exitDx=0;exitDy=0;" parent="1" source="_TsKwwzWjokHUei5vShT-17" target="NqXi6xo34VccyUWVhqhI-4" edge="1">
          <mxGeometry relative="1" as="geometry">
            <mxPoint x="490" y="875" as="sourcePoint" />
            <mxPoint x="605" y="845" as="targetPoint" />
          </mxGeometry>
        </mxCell>
        <mxCell id="_TsKwwzWjokHUei5vShT-20" value="" style="endArrow=none;html=1;rounded=0;entryX=1;entryY=1;entryDx=0;entryDy=0;exitX=0.5;exitY=0;exitDx=0;exitDy=0;" parent="1" source="_TsKwwzWjokHUei5vShT-16" target="NqXi6xo34VccyUWVhqhI-4" edge="1">
          <mxGeometry relative="1" as="geometry">
            <mxPoint x="520" y="815" as="sourcePoint" />
            <mxPoint x="605" y="845" as="targetPoint" />
          </mxGeometry>
        </mxCell>
        <mxCell id="_TsKwwzWjokHUei5vShT-22" value="Abilities" style="ellipse;whiteSpace=wrap;html=1;align=center;" parent="1" vertex="1">
          <mxGeometry x="435" y="545" width="100" height="40" as="geometry" />
        </mxCell>
        <mxCell id="_TsKwwzWjokHUei5vShT-23" value="" style="endArrow=none;html=1;rounded=0;exitX=1;exitY=0;exitDx=0;exitDy=0;entryX=0;entryY=1;entryDx=0;entryDy=0;" parent="1" source="_TsKwwzWjokHUei5vShT-22" target="NqXi6xo34VccyUWVhqhI-4" edge="1">
          <mxGeometry relative="1" as="geometry">
            <mxPoint x="605" y="805" as="sourcePoint" />
            <mxPoint x="660" y="535" as="targetPoint" />
          </mxGeometry>
        </mxCell>
        <mxCell id="_TsKwwzWjokHUei5vShT-25" value="&lt;u&gt;CardID&lt;/u&gt;" style="ellipse;whiteSpace=wrap;html=1;align=center;" parent="1" vertex="1">
          <mxGeometry x="770" y="440" width="100" height="40" as="geometry" />
        </mxCell>
        <mxCell id="_TsKwwzWjokHUei5vShT-26" value="" style="endArrow=none;html=1;rounded=0;entryX=0;entryY=0.5;entryDx=0;entryDy=0;exitX=1;exitY=0;exitDx=0;exitDy=0;" parent="1" source="NqXi6xo34VccyUWVhqhI-4" target="_TsKwwzWjokHUei5vShT-25" edge="1">
          <mxGeometry relative="1" as="geometry">
            <mxPoint x="490" y="1005" as="sourcePoint" />
            <mxPoint x="605" y="845" as="targetPoint" />
          </mxGeometry>
        </mxCell>
        <mxCell id="_TsKwwzWjokHUei5vShT-28" value="" style="endArrow=none;html=1;rounded=0;exitX=0;exitY=0;exitDx=0;exitDy=0;entryX=1;entryY=1;entryDx=0;entryDy=0;" parent="1" source="NqXi6xo34VccyUWVhqhI-4" target="BnjANfpRquIea6QmIrjI-3" edge="1">
          <mxGeometry relative="1" as="geometry">
            <mxPoint x="605" y="845" as="sourcePoint" />
            <mxPoint x="720" y="815" as="targetPoint" />
          </mxGeometry>
        </mxCell>
        <mxCell id="_TsKwwzWjokHUei5vShT-30" value="" style="endArrow=none;html=1;rounded=0;exitX=0;exitY=1;exitDx=0;exitDy=0;entryX=0.5;entryY=0;entryDx=0;entryDy=0;" parent="1" source="NqXi6xo34VccyUWVhqhI-4" target="_TsKwwzWjokHUei5vShT-96" edge="1">
          <mxGeometry relative="1" as="geometry">
            <mxPoint x="640" y="742" as="sourcePoint" />
            <mxPoint x="710" y="645" as="targetPoint" />
          </mxGeometry>
        </mxCell>
        <mxCell id="_TsKwwzWjokHUei5vShT-96" value="NumberOf&lt;span style=&quot;background-color: transparent; color: light-dark(rgb(0, 0, 0), rgb(255, 255, 255));&quot;&gt;Cards&lt;/span&gt;" style="ellipse;whiteSpace=wrap;html=1;align=center;" parent="1" vertex="1">
          <mxGeometry x="500" y="595" width="100" height="40" as="geometry" />
        </mxCell>
        <mxCell id="_TsKwwzWjokHUei5vShT-100" value="DeckList ID" style="ellipse;whiteSpace=wrap;html=1;align=center;fontStyle=4;" parent="1" vertex="1">
          <mxGeometry x="440" y="665" width="100" height="40" as="geometry" />
        </mxCell>
        <mxCell id="_TsKwwzWjokHUei5vShT-101" value="&lt;span style=&quot;border-bottom: 1px dotted&quot;&gt;fkCollection ID&lt;/span&gt;" style="ellipse;whiteSpace=wrap;html=1;align=center;" parent="1" vertex="1">
          <mxGeometry x="760" y="665" width="100" height="40" as="geometry" />
        </mxCell>
        <mxCell id="_TsKwwzWjokHUei5vShT-102" value="" style="endArrow=none;html=1;rounded=0;entryX=0;entryY=0.5;entryDx=0;entryDy=0;exitX=1;exitY=0.5;exitDx=0;exitDy=0;" parent="1" source="_TsKwwzWjokHUei5vShT-100" target="NqXi6xo34VccyUWVhqhI-9" edge="1">
          <mxGeometry relative="1" as="geometry">
            <mxPoint x="540" y="698" as="sourcePoint" />
            <mxPoint x="883" y="693" as="targetPoint" />
          </mxGeometry>
        </mxCell>
        <mxCell id="_TsKwwzWjokHUei5vShT-103" value="&lt;span style=&quot;border-bottom: 1px dotted&quot;&gt;fkDeckID&lt;/span&gt;" style="ellipse;whiteSpace=wrap;html=1;align=center;" parent="1" vertex="1">
          <mxGeometry x="760" y="725" width="100" height="40" as="geometry" />
        </mxCell>
        <mxCell id="_TsKwwzWjokHUei5vShT-104" value="" style="endArrow=none;html=1;rounded=0;entryX=1;entryY=0.5;entryDx=0;entryDy=0;exitX=0;exitY=0.5;exitDx=0;exitDy=0;" parent="1" source="_TsKwwzWjokHUei5vShT-101" target="NqXi6xo34VccyUWVhqhI-9" edge="1">
          <mxGeometry relative="1" as="geometry">
            <mxPoint x="540" y="698" as="sourcePoint" />
            <mxPoint x="883" y="693" as="targetPoint" />
          </mxGeometry>
        </mxCell>
        <mxCell id="_TsKwwzWjokHUei5vShT-105" value="" style="endArrow=none;html=1;rounded=0;exitX=0;exitY=0.5;exitDx=0;exitDy=0;entryX=1;entryY=0.5;entryDx=0;entryDy=0;" parent="1" source="_TsKwwzWjokHUei5vShT-103" target="NqXi6xo34VccyUWVhqhI-9" edge="1">
          <mxGeometry relative="1" as="geometry">
            <mxPoint x="850" y="713" as="sourcePoint" />
            <mxPoint x="883" y="693" as="targetPoint" />
          </mxGeometry>
        </mxCell>
        <mxCell id="_TsKwwzWjokHUei5vShT-160" value="DeckName" style="ellipse;whiteSpace=wrap;html=1;align=center;" parent="1" vertex="1">
          <mxGeometry x="600" y="925" width="100" height="40" as="geometry" />
        </mxCell>
        <mxCell id="_TsKwwzWjokHUei5vShT-161" value="" style="endArrow=none;html=1;rounded=0;entryX=0.5;entryY=0;entryDx=0;entryDy=0;exitX=0.5;exitY=1;exitDx=0;exitDy=0;" parent="1" source="NqXi6xo34VccyUWVhqhI-5" target="_TsKwwzWjokHUei5vShT-160" edge="1">
          <mxGeometry relative="1" as="geometry">
            <mxPoint x="700" y="750" as="sourcePoint" />
            <mxPoint x="472" y="685" as="targetPoint" />
          </mxGeometry>
        </mxCell>
        <mxCell id="_TsKwwzWjokHUei5vShT-162" value="&lt;u&gt;DeckID&lt;/u&gt;" style="ellipse;whiteSpace=wrap;html=1;align=center;" parent="1" vertex="1">
          <mxGeometry x="465" y="855" width="100" height="40" as="geometry" />
        </mxCell>
        <mxCell id="_TsKwwzWjokHUei5vShT-164" value="DeckSize" style="ellipse;whiteSpace=wrap;html=1;align=center;" parent="1" vertex="1">
          <mxGeometry x="730" y="855" width="100" height="40" as="geometry" />
        </mxCell>
        <mxCell id="_TsKwwzWjokHUei5vShT-165" value="" style="endArrow=none;html=1;rounded=0;entryX=1;entryY=0.5;entryDx=0;entryDy=0;exitX=0;exitY=0.5;exitDx=0;exitDy=0;" parent="1" source="_TsKwwzWjokHUei5vShT-164" target="NqXi6xo34VccyUWVhqhI-5" edge="1">
          <mxGeometry relative="1" as="geometry">
            <mxPoint x="1030" y="945" as="sourcePoint" />
            <mxPoint x="750" y="945" as="targetPoint" />
          </mxGeometry>
        </mxCell>
        <mxCell id="_TsKwwzWjokHUei5vShT-166" style="edgeStyle=orthogonalEdgeStyle;rounded=0;orthogonalLoop=1;jettySize=auto;html=1;exitX=0.5;exitY=1;exitDx=0;exitDy=0;" parent="1" source="_TsKwwzWjokHUei5vShT-103" target="_TsKwwzWjokHUei5vShT-103" edge="1">
          <mxGeometry relative="1" as="geometry" />
        </mxCell>
        <mxCell id="77BDy7SxmX_6jDcQKQBA-1" value="" style="edgeStyle=entityRelationEdgeStyle;fontSize=12;html=1;endArrow=ERmandOne;rounded=0;entryX=1;entryY=0.5;entryDx=0;entryDy=0;exitX=0;exitY=0.5;exitDx=0;exitDy=0;" parent="1" source="NqXi6xo34VccyUWVhqhI-68" target="NqXi6xo34VccyUWVhqhI-7" edge="1">
          <mxGeometry width="100" height="100" relative="1" as="geometry">
            <mxPoint x="250" y="735" as="sourcePoint" />
            <mxPoint x="350" y="635" as="targetPoint" />
          </mxGeometry>
        </mxCell>
        <mxCell id="77BDy7SxmX_6jDcQKQBA-5" value="" style="endArrow=none;html=1;rounded=0;entryX=0;entryY=0.5;entryDx=0;entryDy=0;exitX=1;exitY=0.5;exitDx=0;exitDy=0;" parent="1" source="_TsKwwzWjokHUei5vShT-162" target="NqXi6xo34VccyUWVhqhI-5" edge="1">
          <mxGeometry width="50" height="50" relative="1" as="geometry">
            <mxPoint x="530" y="845" as="sourcePoint" />
            <mxPoint x="580" y="795" as="targetPoint" />
          </mxGeometry>
        </mxCell>
        <mxCell id="77BDy7SxmX_6jDcQKQBA-6" value="Contains" style="shape=rhombus;perimeter=rhombusPerimeter;whiteSpace=wrap;html=1;align=center;" parent="1" vertex="1">
          <mxGeometry x="620" y="595" width="60" height="40" as="geometry" />
        </mxCell>
        <mxCell id="77BDy7SxmX_6jDcQKQBA-7" value="" style="edgeStyle=orthogonalEdgeStyle;fontSize=12;html=1;endArrow=ERmandOne;rounded=0;entryX=0.5;entryY=1;entryDx=0;entryDy=0;exitX=0.5;exitY=0;exitDx=0;exitDy=0;" parent="1" source="77BDy7SxmX_6jDcQKQBA-6" target="NqXi6xo34VccyUWVhqhI-4" edge="1">
          <mxGeometry width="100" height="100" relative="1" as="geometry">
            <mxPoint x="680" y="645" as="sourcePoint" />
            <mxPoint x="780" y="545" as="targetPoint" />
          </mxGeometry>
        </mxCell>
        <mxCell id="77BDy7SxmX_6jDcQKQBA-8" value="Has a" style="shape=rhombus;perimeter=rhombusPerimeter;whiteSpace=wrap;html=1;align=center;" parent="1" vertex="1">
          <mxGeometry x="840" y="325" width="60" height="40" as="geometry" />
        </mxCell>
        <mxCell id="77BDy7SxmX_6jDcQKQBA-11" value="Speed" style="whiteSpace=wrap;html=1;align=center;" parent="1" vertex="1">
          <mxGeometry x="930" y="325" width="100" height="40" as="geometry" />
        </mxCell>
        <mxCell id="77BDy7SxmX_6jDcQKQBA-12" value="CardType" style="ellipse;whiteSpace=wrap;html=1;align=center;" parent="1" vertex="1">
          <mxGeometry x="740" y="395" width="100" height="40" as="geometry" />
        </mxCell>
        <mxCell id="77BDy7SxmX_6jDcQKQBA-13" value="" style="endArrow=none;html=1;rounded=0;entryX=0;entryY=1;entryDx=0;entryDy=0;exitX=1;exitY=0;exitDx=0;exitDy=0;" parent="1" source="NqXi6xo34VccyUWVhqhI-4" target="77BDy7SxmX_6jDcQKQBA-12" edge="1">
          <mxGeometry relative="1" as="geometry">
            <mxPoint x="620" y="435" as="sourcePoint" />
            <mxPoint x="780" y="435" as="targetPoint" />
          </mxGeometry>
        </mxCell>
        <mxCell id="77BDy7SxmX_6jDcQKQBA-14" value="CardType:" style="text;html=1;align=center;verticalAlign=middle;resizable=0;points=[];autosize=1;strokeColor=none;fillColor=none;" parent="1" vertex="1">
          <mxGeometry x="572.5" y="435" width="80" height="30" as="geometry" />
        </mxCell>
        <mxCell id="77BDy7SxmX_6jDcQKQBA-15" value="&quot;C&quot;" style="text;html=1;align=center;verticalAlign=middle;resizable=0;points=[];autosize=1;strokeColor=none;fillColor=none;" parent="1" vertex="1">
          <mxGeometry x="540" y="375" width="40" height="30" as="geometry" />
        </mxCell>
        <mxCell id="77BDy7SxmX_6jDcQKQBA-16" value="&quot;S&quot;" style="text;html=1;align=center;verticalAlign=middle;resizable=0;points=[];autosize=1;strokeColor=none;fillColor=none;" parent="1" vertex="1">
          <mxGeometry x="710" y="375" width="40" height="30" as="geometry" />
        </mxCell>
        <mxCell id="77BDy7SxmX_6jDcQKQBA-17" value="CastSpeed" style="ellipse;whiteSpace=wrap;html=1;align=center;" parent="1" vertex="1">
          <mxGeometry x="930" y="260" width="100" height="40" as="geometry" />
        </mxCell>
        <mxCell id="77BDy7SxmX_6jDcQKQBA-18" value="" style="edgeStyle=entityRelationEdgeStyle;fontSize=12;html=1;endArrow=ERzeroToMany;endFill=1;rounded=0;entryX=1;entryY=0.5;entryDx=0;entryDy=0;exitX=0;exitY=0.5;exitDx=0;exitDy=0;" parent="1" source="77BDy7SxmX_6jDcQKQBA-8" target="NqXi6xo34VccyUWVhqhI-78" edge="1">
          <mxGeometry width="100" height="100" relative="1" as="geometry">
            <mxPoint x="742.5" y="510" as="sourcePoint" />
            <mxPoint x="842.5" y="410" as="targetPoint" />
          </mxGeometry>
        </mxCell>
        <mxCell id="77BDy7SxmX_6jDcQKQBA-19" value="" style="edgeStyle=entityRelationEdgeStyle;fontSize=12;html=1;endArrow=ERmandOne;rounded=0;entryX=0;entryY=0.5;entryDx=0;entryDy=0;exitX=1;exitY=0.5;exitDx=0;exitDy=0;" parent="1" source="77BDy7SxmX_6jDcQKQBA-8" target="77BDy7SxmX_6jDcQKQBA-11" edge="1">
          <mxGeometry width="100" height="100" relative="1" as="geometry">
            <mxPoint x="690" y="510" as="sourcePoint" />
            <mxPoint x="790" y="410" as="targetPoint" />
          </mxGeometry>
        </mxCell>
        <mxCell id="77BDy7SxmX_6jDcQKQBA-22" value="" style="endArrow=none;html=1;rounded=0;entryX=0.5;entryY=0;entryDx=0;entryDy=0;exitX=0.5;exitY=1;exitDx=0;exitDy=0;" parent="1" source="77BDy7SxmX_6jDcQKQBA-17" target="77BDy7SxmX_6jDcQKQBA-11" edge="1">
          <mxGeometry width="50" height="50" relative="1" as="geometry">
            <mxPoint x="990" y="290" as="sourcePoint" />
            <mxPoint x="740" y="430" as="targetPoint" />
          </mxGeometry>
        </mxCell>
        <mxCell id="77BDy7SxmX_6jDcQKQBA-23" value="&lt;u&gt;SpeedID&lt;/u&gt;" style="ellipse;whiteSpace=wrap;html=1;align=center;" parent="1" vertex="1">
          <mxGeometry x="1060" y="325" width="100" height="40" as="geometry" />
        </mxCell>
        <mxCell id="77BDy7SxmX_6jDcQKQBA-24" value="" style="endArrow=none;html=1;rounded=0;entryX=0;entryY=0.5;entryDx=0;entryDy=0;exitX=1;exitY=0.5;exitDx=0;exitDy=0;" parent="1" source="77BDy7SxmX_6jDcQKQBA-11" target="77BDy7SxmX_6jDcQKQBA-23" edge="1">
          <mxGeometry width="50" height="50" relative="1" as="geometry">
            <mxPoint x="740" y="580" as="sourcePoint" />
            <mxPoint x="790" y="530" as="targetPoint" />
          </mxGeometry>
        </mxCell>
        <mxCell id="77BDy7SxmX_6jDcQKQBA-25" value="MatchID" style="ellipse;whiteSpace=wrap;html=1;align=center;fontStyle=4;" parent="1" vertex="1">
          <mxGeometry x="860" y="625" width="100" height="40" as="geometry" />
        </mxCell>
        <mxCell id="77BDy7SxmX_6jDcQKQBA-26" value="PileID" style="ellipse;whiteSpace=wrap;html=1;align=center;fontStyle=4;" parent="1" vertex="1">
          <mxGeometry x="1220" y="415" width="100" height="40" as="geometry" />
        </mxCell>
        <mxCell id="77BDy7SxmX_6jDcQKQBA-27" value="" style="endArrow=none;html=1;rounded=0;entryX=0.5;entryY=1;entryDx=0;entryDy=0;exitX=0.5;exitY=0;exitDx=0;exitDy=0;" parent="1" source="NqXi6xo34VccyUWVhqhI-6" target="77BDy7SxmX_6jDcQKQBA-26" edge="1">
          <mxGeometry width="50" height="50" relative="1" as="geometry">
            <mxPoint x="1020" y="595" as="sourcePoint" />
            <mxPoint x="1070" y="545" as="targetPoint" />
          </mxGeometry>
        </mxCell>
        <mxCell id="77BDy7SxmX_6jDcQKQBA-28" value="" style="endArrow=none;html=1;rounded=0;entryX=1;entryY=1;entryDx=0;entryDy=0;exitX=0;exitY=0.5;exitDx=0;exitDy=0;" parent="1" source="NqXi6xo34VccyUWVhqhI-11" target="77BDy7SxmX_6jDcQKQBA-25" edge="1">
          <mxGeometry width="50" height="50" relative="1" as="geometry">
            <mxPoint x="1020" y="595" as="sourcePoint" />
            <mxPoint x="1070" y="545" as="targetPoint" />
          </mxGeometry>
        </mxCell>
        <mxCell id="77BDy7SxmX_6jDcQKQBA-29" value="&lt;span style=&quot;border-bottom: 1px dotted&quot;&gt;MatchID&lt;/span&gt;" style="ellipse;whiteSpace=wrap;html=1;align=center;" parent="1" vertex="1">
          <mxGeometry x="1070" y="555" width="100" height="40" as="geometry" />
        </mxCell>
        <mxCell id="77BDy7SxmX_6jDcQKQBA-30" value="&lt;span style=&quot;border-bottom: 1px dotted&quot;&gt;PileID&lt;/span&gt;" style="ellipse;whiteSpace=wrap;html=1;align=center;" parent="1" vertex="1">
          <mxGeometry x="1070" y="415" width="100" height="40" as="geometry" />
        </mxCell>
        <mxCell id="77BDy7SxmX_6jDcQKQBA-31" value="&lt;span style=&quot;border-bottom: 1px dotted&quot;&gt;CardID&lt;/span&gt;" style="ellipse;whiteSpace=wrap;html=1;align=center;" parent="1" vertex="1">
          <mxGeometry x="890" y="415" width="100" height="40" as="geometry" />
        </mxCell>
        <mxCell id="77BDy7SxmX_6jDcQKQBA-32" value="" style="endArrow=none;html=1;rounded=0;entryX=0.5;entryY=1;entryDx=0;entryDy=0;exitX=0;exitY=0;exitDx=0;exitDy=0;" parent="1" source="NqXi6xo34VccyUWVhqhI-3" target="77BDy7SxmX_6jDcQKQBA-31" edge="1">
          <mxGeometry width="50" height="50" relative="1" as="geometry">
            <mxPoint x="1020" y="595" as="sourcePoint" />
            <mxPoint x="1070" y="545" as="targetPoint" />
          </mxGeometry>
        </mxCell>
        <mxCell id="77BDy7SxmX_6jDcQKQBA-33" value="" style="endArrow=none;html=1;rounded=0;entryX=0;entryY=1;entryDx=0;entryDy=0;exitX=0.5;exitY=0;exitDx=0;exitDy=0;" parent="1" source="77BDy7SxmX_6jDcQKQBA-36" target="NqXi6xo34VccyUWVhqhI-3" edge="1">
          <mxGeometry width="50" height="50" relative="1" as="geometry">
            <mxPoint x="970" y="585" as="sourcePoint" />
            <mxPoint x="1070" y="545" as="targetPoint" />
          </mxGeometry>
        </mxCell>
        <mxCell id="77BDy7SxmX_6jDcQKQBA-34" value="" style="endArrow=none;html=1;rounded=0;entryX=0.5;entryY=0;entryDx=0;entryDy=0;exitX=1;exitY=1;exitDx=0;exitDy=0;" parent="1" source="NqXi6xo34VccyUWVhqhI-3" target="77BDy7SxmX_6jDcQKQBA-29" edge="1">
          <mxGeometry width="50" height="50" relative="1" as="geometry">
            <mxPoint x="1020" y="595" as="sourcePoint" />
            <mxPoint x="1070" y="545" as="targetPoint" />
          </mxGeometry>
        </mxCell>
        <mxCell id="77BDy7SxmX_6jDcQKQBA-35" value="" style="endArrow=none;html=1;rounded=0;entryX=0.5;entryY=1;entryDx=0;entryDy=0;exitX=1;exitY=0;exitDx=0;exitDy=0;" parent="1" source="NqXi6xo34VccyUWVhqhI-3" target="77BDy7SxmX_6jDcQKQBA-30" edge="1">
          <mxGeometry width="50" height="50" relative="1" as="geometry">
            <mxPoint x="1020" y="595" as="sourcePoint" />
            <mxPoint x="1070" y="545" as="targetPoint" />
          </mxGeometry>
        </mxCell>
        <mxCell id="77BDy7SxmX_6jDcQKQBA-36" value="BoardStateID" style="ellipse;whiteSpace=wrap;html=1;align=center;fontStyle=4;" parent="1" vertex="1">
          <mxGeometry x="890" y="555" width="100" height="40" as="geometry" />
        </mxCell>
        <mxCell id="77BDy7SxmX_6jDcQKQBA-42" value="PileType" style="ellipse;whiteSpace=wrap;html=1;align=center;" parent="1" vertex="1">
          <mxGeometry x="1220" y="565" width="100" height="40" as="geometry" />
        </mxCell>
        <mxCell id="77BDy7SxmX_6jDcQKQBA-43" value="" style="endArrow=none;html=1;rounded=0;entryX=0.5;entryY=1;entryDx=0;entryDy=0;" parent="1" source="77BDy7SxmX_6jDcQKQBA-42" target="NqXi6xo34VccyUWVhqhI-6" edge="1">
          <mxGeometry width="50" height="50" relative="1" as="geometry">
            <mxPoint x="1000" y="595" as="sourcePoint" />
            <mxPoint x="1050" y="545" as="targetPoint" />
          </mxGeometry>
        </mxCell>
        <mxCell id="77BDy7SxmX_6jDcQKQBA-44" value="CurrentTurn" style="ellipse;whiteSpace=wrap;html=1;align=center;" parent="1" vertex="1">
          <mxGeometry x="1040" y="735" width="100" height="40" as="geometry" />
        </mxCell>
        <mxCell id="77BDy7SxmX_6jDcQKQBA-45" value="PlayerHealth" style="ellipse;whiteSpace=wrap;html=1;align=center;" parent="1" vertex="1">
          <mxGeometry x="920" y="735" width="100" height="40" as="geometry" />
        </mxCell>
        <mxCell id="77BDy7SxmX_6jDcQKQBA-46" value="ManaSpent" style="ellipse;whiteSpace=wrap;html=1;align=center;" parent="1" vertex="1">
          <mxGeometry x="1130" y="650" width="110" height="50" as="geometry" />
        </mxCell>
        <mxCell id="77BDy7SxmX_6jDcQKQBA-47" value="" style="endArrow=none;html=1;rounded=0;entryX=0.5;entryY=0;entryDx=0;entryDy=0;exitX=0.5;exitY=1;exitDx=0;exitDy=0;" parent="1" source="NqXi6xo34VccyUWVhqhI-11" target="77BDy7SxmX_6jDcQKQBA-44" edge="1">
          <mxGeometry width="50" height="50" relative="1" as="geometry">
            <mxPoint x="1000" y="595" as="sourcePoint" />
            <mxPoint x="1050" y="545" as="targetPoint" />
          </mxGeometry>
        </mxCell>
        <mxCell id="77BDy7SxmX_6jDcQKQBA-48" value="" style="endArrow=none;html=1;rounded=0;entryX=0;entryY=0.5;entryDx=0;entryDy=0;exitX=1;exitY=0.5;exitDx=0;exitDy=0;" parent="1" source="NqXi6xo34VccyUWVhqhI-11" target="77BDy7SxmX_6jDcQKQBA-46" edge="1">
          <mxGeometry width="50" height="50" relative="1" as="geometry">
            <mxPoint x="1000" y="595" as="sourcePoint" />
            <mxPoint x="1050" y="545" as="targetPoint" />
          </mxGeometry>
        </mxCell>
        <mxCell id="77BDy7SxmX_6jDcQKQBA-49" value="" style="endArrow=none;html=1;rounded=0;entryX=0.5;entryY=1;entryDx=0;entryDy=0;exitX=0.5;exitY=0;exitDx=0;exitDy=0;" parent="1" source="77BDy7SxmX_6jDcQKQBA-45" target="NqXi6xo34VccyUWVhqhI-11" edge="1">
          <mxGeometry width="50" height="50" relative="1" as="geometry">
            <mxPoint x="1000" y="595" as="sourcePoint" />
            <mxPoint x="1050" y="545" as="targetPoint" />
          </mxGeometry>
        </mxCell>
        <mxCell id="77BDy7SxmX_6jDcQKQBA-51" value="NumberOfCards" style="ellipse;whiteSpace=wrap;html=1;align=center;" parent="1" vertex="1">
          <mxGeometry x="440" y="725" width="100" height="40" as="geometry" />
        </mxCell>
        <mxCell id="77BDy7SxmX_6jDcQKQBA-52" value="" style="endArrow=none;html=1;rounded=0;entryX=0;entryY=0.5;entryDx=0;entryDy=0;exitX=1;exitY=0.5;exitDx=0;exitDy=0;" parent="1" source="77BDy7SxmX_6jDcQKQBA-51" target="NqXi6xo34VccyUWVhqhI-9" edge="1">
          <mxGeometry width="50" height="50" relative="1" as="geometry">
            <mxPoint x="660" y="625" as="sourcePoint" />
            <mxPoint x="710" y="575" as="targetPoint" />
          </mxGeometry>
        </mxCell>
        <mxCell id="BnjANfpRquIea6QmIrjI-3" value="&lt;span style=&quot;border-bottom: 1px dotted&quot;&gt;RarityID&lt;/span&gt;" style="ellipse;whiteSpace=wrap;html=1;align=center;" vertex="1" parent="1">
          <mxGeometry x="450" y="415" width="100" height="40" as="geometry" />
        </mxCell>
        <mxCell id="BnjANfpRquIea6QmIrjI-4" value="" style="edgeStyle=entityRelationEdgeStyle;fontSize=12;html=1;endArrow=ERzeroToMany;endFill=1;rounded=0;entryX=0;entryY=0.5;entryDx=0;entryDy=0;exitX=1;exitY=0.5;exitDx=0;exitDy=0;" edge="1" parent="1" source="NqXi6xo34VccyUWVhqhI-68" target="NqXi6xo34VccyUWVhqhI-4">
          <mxGeometry width="100" height="100" relative="1" as="geometry">
            <mxPoint x="500" y="665" as="sourcePoint" />
            <mxPoint x="600" y="565" as="targetPoint" />
          </mxGeometry>
        </mxCell>
      </root>
    </mxGraphModel>
  </diagram>
</mxfile>
